# xmcd
#
# Track frame offsets:
# 150
# 12786
# 28286
# 47521
# 57266
# 72592
# 82995
# 99699
# 114581
# 129839
# 144792
#
# Disc length: 2208 seconds
#
# Revision: 0
# Processed by: cddbd v1.5.2PL0 Copyright (c) Steve Scherf et al.
# Submitted via: Audion 3.0.2 (http://www.panic.com/audion/)
#
DISCID=8c089e0b
DTITLE=The Coastal Cohorts - Wild Ponies
DYEAR=1900
DGENRE=
TTITLE0=Wild Ponies
TTITLE1=Lowcountry Cookin'
TTITLE2=Coastal Healing
TTITLE3=Sea Breeze
TTITLE4=I Can Build a Boat
TTITLE5=A Southern Belle in a Coastal Town
TTITLE6=Catfish
TTITLE7=Going Down the Cape Fear River
TTITLE8=Farmer Tan
TTITLE9=Sea Level Sweetheart
TTITLE10=I Can Hear the River
EXTD=
EXTT0=
EXTT1=
EXTT2=
EXTT3=
EXTT4=
EXTT5=
EXTT6=
EXTT7=
EXTT8=
EXTT9=
EXTT10=
PLAYORDER=
